<?xml version="1.0" encoding="utf-8"?>
<!-- Generator: Adobe Illustrator 16.0.0, SVG Export Plug-In . SVG Version: 6.00 Build 0)  -->
<!DOCTYPE svg PUBLIC "-//W3C//DTD SVG 1.1//EN" "http://www.w3.org/Graphics/SVG/1.1/DTD/svg11.dtd">
<svg version="1.1" id="Capa_1" xmlns="http://www.w3.org/2000/svg" xmlns:xlink="http://www.w3.org/1999/xlink" x="0px" y="0px"
	width="356px" height="371px" viewBox="0 0 356 371" enable-background="new 0 0 356 371" xml:space="preserve">
<g>
	<path fill="#6d8d16" d="M222.466,20.593l-103,131h26v132h32l-2-116.3h91.1l-0.1,117.3h31l1-134l25-1L222.466,20.593z
		M171.466,129.593l54-67l47,67H171.466z"/>
	<path fill="#6d8d16" d="M140.165,208.1c-15.699-5.2-30.299-14.601-41.899-28c-34.3-39.4-30.2-99.101,9.101-133.2
		c13.299-11.5,29-18.7,45.199-21.5c-30.5-10.101-65.3-4.4-91.3,18.2c-39.3,34-43.3,93.699-9.101,133.199
		C74.865,202.9,108.565,213.6,140.165,208.1z"/>
	<path fill="#6d8d16" d="M87.266,346h-4.8V309.6l-0.301,2.3L69.866,346h-2.5l-12.5-34.1l-0.301-2.3V346h-4.8v-53.1h2.5l16.101,43.5
		l0.199,2l0.1-2l16.101-43.5h2.5V346z M122.866,346l-3.602-12.399h-16.799L99.065,346h-5l15.5-53.1h2.6l15.6,53.1H122.866z
		M110.765,304.6l-6.899,24.5h14.2l-7-24.5l-0.1-2L110.765,304.6z M164.966,346h-5.5l-14.4-22.6h-6.5V346h-4.801v-53.1h16.801
		c1.801,0,3.5,0.366,5.1,1.1c1.6,0.667,3,1.601,4.201,2.8c1.133,1.134,2.033,2.501,2.699,4.101c0.734,1.6,1.1,3.3,1.1,5.1v4.301
		c0,1.8-0.365,3.5-1.1,5.1c-0.666,1.6-1.566,3-2.699,4.2c-1.201,1.133-2.602,2.066-4.201,2.8c-1.6,0.667-3.299,1-5.1,1L164.966,346z
		M158.866,310.2V306c0-1.199-0.234-2.3-0.701-3.3c-0.4-1.066-1-1.967-1.799-2.7c-0.734-0.8-1.635-1.433-2.701-1.899
		c-1-0.467-2.1-0.7-3.299-0.7h-11.801v21.4h11.801c1.199,0,2.299-0.233,3.299-0.7c1.066-0.467,1.967-1.066,2.701-1.8
		c0.799-0.801,1.398-1.7,1.799-2.7C158.632,312.534,158.866,311.4,158.866,310.2L158.866,310.2z M211.565,346h-4.801V309.6
		l-0.299,2.2l-12.301,34.2h-2.5l-12.5-34.2l-0.299-2.2V346h-4.801v-53.1h2.5l16.1,43.5l0.201,2l0.1-2l16.1-43.5h2.5V346z
		M252.765,333.7c0,1.801-0.332,3.5-1,5.101c-0.666,1.533-1.6,2.899-2.799,4.1c-1.201,1.2-2.566,2.134-4.1,2.8
		c-1.602,0.667-3.301,1-5.102,1h-3.799c-1.801,0-3.5-0.333-5.1-1c-1.602-0.666-2.967-1.6-4.102-2.8
		c-1.199-1.2-2.133-2.566-2.799-4.1c-0.666-1.601-1-3.3-1-5.101v-28.5c0-1.8,0.334-3.5,1-5.1c0.666-1.601,1.6-2.967,2.799-4.101
		c1.135-1.2,2.5-2.133,4.102-2.8c1.6-0.733,3.299-1.1,5.1-1.1h3.799c1.801,0,3.5,0.366,5.102,1.1c1.533,0.667,2.898,1.6,4.1,2.8
		c1.199,1.134,2.133,2.5,2.799,4.101c0.668,1.6,1,3.3,1,5.1V333.7z M248.065,333.7v-28.5c0-1.199-0.232-2.3-0.699-3.3
		c-0.467-1.066-1.068-1.967-1.801-2.7c-0.801-0.8-1.699-1.4-2.699-1.8c-1-0.467-2.102-0.7-3.301-0.7h-3.4
		c-1.133,0-2.232,0.233-3.299,0.7c-1,0.399-1.9,1-2.701,1.8c-0.732,0.733-1.332,1.634-1.799,2.7c-0.467,1-0.701,2.101-0.701,3.3
		v28.5c0,1.2,0.234,2.3,0.701,3.3s1.066,1.9,1.799,2.7c0.801,0.801,1.701,1.4,2.701,1.8c1.066,0.467,2.166,0.7,3.299,0.7h3.4
		c1.199,0,2.301-0.233,3.301-0.7c1-0.399,1.898-1,2.699-1.8c0.732-0.8,1.334-1.7,1.801-2.7S248.065,334.9,248.065,333.7z
		M289.765,297.4h-12.699v48.601h-4.801V297.4h-12.6v-4.5h30.1V297.4z M318.565,345.9l-3.6-12.399h-16.801l-3.5,12.399h-4.9
		l15.5-53.101h2.602l15.6,53.101H318.565z M306.466,304.501l-6.9,24.5h14.199l-7-24.5l-0.1-1.9L306.466,304.501z"/>
</g>
</svg>
